<?xml version="1.0" standalone="no"?>
<!DOCTYPE svg PUBLIC "-//W3C//DTD SVG 20010904//EN"
 "http://www.w3.org/TR/2001/REC-SVG-20010904/DTD/svg10.dtd">
<svg version="1.0" xmlns="http://www.w3.org/2000/svg"
 width="391.000000pt" height="391.000000pt" viewBox="0 0 391.000000 391.000000"
 preserveAspectRatio="xMidYMid meet">
<metadata>
Created by potrace 1.14, written by Peter Selinger 2001-2017
</metadata>
<g transform="translate(0.000000,391.000000) scale(0.100000,-0.100000)"
fill="#000000" stroke="none">
<path d="M1882 3610 c-80 -37 -116 -94 -116 -185 1 -116 80 -190 204 -189 54
0 72 5 104 26 101 69 124 194 52 291 -11 15 -43 39 -71 52 -58 29 -116 30
-173 5z"/>
<path d="M450 2970 l0 -90 276 0 275 0 26 -57 c71 -161 93 -255 89 -378 -4
-151 -57 -219 -163 -211 -68 6 -102 31 -148 106 -20 33 -38 60 -39 60 -4 0
-149 -79 -153 -83 -4 -5 83 -172 140 -267 164 -277 415 -578 617 -739 l65 -51
30 36 c16 20 44 52 62 72 36 39 38 33 -42 97 -139 111 -318 311 -443 495 l-51
75 47 11 c26 6 61 18 79 27 28 15 73 17 375 17 l344 0 0 -397 -1 -398 98 -3
97 -3 0 796 0 795 125 0 c76 0 125 4 126 10 0 6 0 30 0 55 0 25 0 61 0 80 l-1
35 -915 0 -915 0 0 -90z m1386 -400 l0 -310 -279 0 -279 0 6 23 c16 52 21 98
20 192 -1 111 -26 224 -74 337 l-29 68 317 0 318 0 0 -310z"/>
<path d="M2481 1864 c-25 -22 -57 -70 -87 -130 -44 -89 -46 -95 -31 -118 12
-17 22 -22 40 -19 19 4 33 23 62 84 43 90 72 132 86 123 9 -5 5 -201 -6 -294
-17 -153 -17 -185 2 -208 26 -32 77 -36 108 -9 13 12 49 71 80 132 77 148 148
256 197 300 l40 37 22 -21 c19 -19 20 -30 16 -94 -11 -160 -6 -239 19 -290 26
-53 57 -74 124 -83 83 -12 187 58 269 179 39 57 39 57 36 145 l-3 87 -40 -78
c-98 -192 -222 -288 -295 -229 -25 20 -25 21 -25 199 0 190 -3 205 -51 242
-46 36 -128 20 -180 -36 -65 -69 -240 -354 -226 -367 3 -3 0 -6 -6 -6 -9 0
-10 16 -7 53 30 286 26 367 -20 413 -35 35 -77 31 -124 -12z"/>
</g>
</svg>
